<svg xmlns="http://www.w3.org/2000/svg" xmlns:xlink="http://www.w3.org/1999/xlink" width="500" zoomAndPan="magnify" viewBox="0 0 375 374.999991" height="500" preserveAspectRatio="xMidYMid meet" version="1.0"><defs><clipPath id="e33699ab77"><path d="M 45.371094 45.371094 L 179.59375 45.371094 L 179.59375 179.59375 L 45.371094 179.59375 Z M 45.371094 45.371094 " clip-rule="nonzero"/></clipPath><clipPath id="2f0b4753e7"><path d="M 60.648438 45.371094 L 164.3125 45.371094 C 168.367188 45.371094 172.253906 46.980469 175.117188 49.84375 C 177.984375 52.710938 179.59375 56.597656 179.59375 60.648438 L 179.59375 164.3125 C 179.59375 168.367188 177.984375 172.253906 175.117188 175.117188 C 172.253906 177.984375 168.367188 179.59375 164.3125 179.59375 L 60.648438 179.59375 C 56.597656 179.59375 52.710938 177.984375 49.84375 175.117188 C 46.980469 172.253906 45.371094 168.367188 45.371094 164.3125 L 45.371094 60.648438 C 45.371094 56.597656 46.980469 52.710938 49.84375 49.84375 C 52.710938 46.980469 56.597656 45.371094 60.648438 45.371094 Z M 60.648438 45.371094 " clip-rule="nonzero"/></clipPath><clipPath id="e37ad5fa51"><path d="M 290 195 L 329 195 L 329 234 L 290 234 Z M 290 195 " clip-rule="nonzero"/></clipPath><clipPath id="502af75a79"><path d="M 299.785156 195.40625 L 328.617188 224.238281 L 319.421875 233.433594 L 290.589844 204.601562 Z M 299.785156 195.40625 " clip-rule="nonzero"/></clipPath><clipPath id="01dda3d83b"><path d="M 243 243 L 282 243 L 282 282 L 243 282 Z M 243 243 " clip-rule="nonzero"/></clipPath><clipPath id="986c30358c"><path d="M 252.390625 243.816406 L 281.222656 272.648438 L 272.027344 281.84375 L 243.195312 253.011719 Z M 252.390625 243.816406 " clip-rule="nonzero"/></clipPath><clipPath id="6cb7bcbffb"><path d="M 196 291 L 235 291 L 235 330 L 196 330 Z M 196 291 " clip-rule="nonzero"/></clipPath><clipPath id="ccc30d3ca1"><path d="M 205.605469 291.601562 L 234.4375 320.433594 L 225.242188 329.628906 L 196.410156 300.796875 Z M 205.605469 291.601562 " clip-rule="nonzero"/></clipPath><clipPath id="f93aa10f13"><path d="M 45.371094 195.40625 L 179.59375 195.40625 L 179.59375 329.628906 L 45.371094 329.628906 Z M 45.371094 195.40625 " clip-rule="nonzero"/></clipPath><clipPath id="f9e2336b8c"><path d="M 60.648438 195.40625 L 164.3125 195.40625 C 168.367188 195.40625 172.253906 197.015625 175.117188 199.882812 C 177.984375 202.746094 179.59375 206.632812 179.59375 210.6875 L 179.59375 314.351562 C 179.59375 318.402344 177.984375 322.289062 175.117188 325.15625 C 172.253906 328.019531 168.367188 329.628906 164.3125 329.628906 L 60.648438 329.628906 C 56.597656 329.628906 52.710938 328.019531 49.84375 325.15625 C 46.980469 322.289062 45.371094 318.402344 45.371094 314.351562 L 45.371094 210.6875 C 45.371094 206.632812 46.980469 202.746094 49.84375 199.882812 C 52.710938 197.015625 56.597656 195.40625 60.648438 195.40625 Z M 60.648438 195.40625 " clip-rule="nonzero"/></clipPath><clipPath id="370b28da16"><path d="M 45.371094 45.359375 L 179.59375 45.359375 L 179.59375 179.585938 L 45.371094 179.585938 Z M 45.371094 45.359375 " clip-rule="nonzero"/></clipPath><clipPath id="4f01beff05"><path d="M 45.371094 164.304688 L 45.371094 60.640625 C 45.371094 56.589844 46.980469 52.703125 49.84375 49.835938 C 52.710938 46.96875 56.597656 45.359375 60.648438 45.359375 L 164.3125 45.359375 C 168.367188 45.359375 172.253906 46.96875 175.117188 49.835938 C 177.984375 52.703125 179.59375 56.589844 179.59375 60.640625 L 179.59375 164.304688 C 179.59375 168.355469 177.984375 172.242188 175.117188 175.109375 C 172.253906 177.976562 168.367188 179.585938 164.3125 179.585938 L 60.648438 179.585938 C 56.597656 179.585938 52.710938 177.976562 49.84375 175.109375 C 46.980469 172.242188 45.371094 168.355469 45.371094 164.304688 Z M 45.371094 164.304688 " clip-rule="nonzero"/></clipPath><clipPath id="b593117d66"><path d="M 195.40625 45.359375 L 329.628906 45.359375 L 329.628906 179.585938 L 195.40625 179.585938 Z M 195.40625 45.359375 " clip-rule="nonzero"/></clipPath><clipPath id="2b7b803af9"><path d="M 195.40625 164.304688 L 195.40625 60.640625 C 195.40625 56.589844 197.015625 52.703125 199.882812 49.835938 C 202.746094 46.96875 206.632812 45.359375 210.6875 45.359375 L 314.351562 45.359375 C 318.402344 45.359375 322.289062 46.96875 325.15625 49.835938 C 328.019531 52.703125 329.628906 56.589844 329.628906 60.640625 L 329.628906 164.304688 C 329.628906 168.355469 328.019531 172.242188 325.15625 175.109375 C 322.289062 177.976562 318.402344 179.585938 314.351562 179.585938 L 210.6875 179.585938 C 206.632812 179.585938 202.746094 177.976562 199.882812 175.109375 C 197.015625 172.242188 195.40625 168.355469 195.40625 164.304688 Z M 195.40625 164.304688 " clip-rule="nonzero"/></clipPath></defs><g clip-path="url(#e33699ab77)"><g clip-path="url(#2f0b4753e7)"><path fill="#0e1011" d="M 45.371094 45.371094 L 179.59375 45.371094 L 179.59375 179.59375 L 45.371094 179.59375 Z M 45.371094 45.371094 " fill-opacity="1" fill-rule="nonzero"/></g></g><g clip-path="url(#e37ad5fa51)"><g clip-path="url(#502af75a79)"><path fill="#0e1011" d="M 299.785156 195.40625 L 328.628906 224.25 L 319.433594 233.445312 L 290.589844 204.601562 Z M 299.785156 195.40625 " fill-opacity="1" fill-rule="nonzero"/></g></g><g clip-path="url(#01dda3d83b)"><g clip-path="url(#986c30358c)"><path fill="#0e1011" d="M 252.390625 243.816406 L 281.234375 272.660156 L 272.039062 281.855469 L 243.195312 253.011719 Z M 252.390625 243.816406 " fill-opacity="1" fill-rule="nonzero"/></g></g><g clip-path="url(#6cb7bcbffb)"><g clip-path="url(#ccc30d3ca1)"><path fill="#0e1011" d="M 205.605469 291.601562 L 234.449219 320.445312 L 225.253906 329.640625 L 196.410156 300.796875 Z M 205.605469 291.601562 " fill-opacity="1" fill-rule="nonzero"/></g></g><g clip-path="url(#f93aa10f13)"><g clip-path="url(#f9e2336b8c)"><path fill="#0e1011" d="M 45.371094 195.40625 L 179.59375 195.40625 L 179.59375 329.628906 L 45.371094 329.628906 Z M 45.371094 195.40625 " fill-opacity="1" fill-rule="nonzero"/></g></g><g clip-path="url(#370b28da16)"><g clip-path="url(#4f01beff05)"><path fill="#0e1011" d="M 45.371094 179.585938 L 45.371094 45.359375 L 179.59375 45.359375 L 179.59375 179.585938 Z M 45.371094 179.585938 " fill-opacity="1" fill-rule="nonzero"/></g></g><g clip-path="url(#b593117d66)"><g clip-path="url(#2b7b803af9)"><path fill="#0e1011" d="M 195.40625 179.585938 L 195.40625 45.359375 L 329.628906 45.359375 L 329.628906 179.585938 Z M 195.40625 179.585938 " fill-opacity="1" fill-rule="nonzero"/></g></g></svg>